# xmcd CD database file
#
# Track frame offsets:
#	183
#	16440
#	34635
#	47743
#	61890
#	77323
#	91853
#	104383
#	114310
#	125725
#	139715
#	155183
#	167943
#	179525
#	190563
#	201993
#
# Disc length: 2863 seconds
#
# Revision: 4
# Processed by: cddbd v1.5.2PL0 Copyright (c) Steve Scherf et al.
# Submitted via: CDex 1.51
#
DISCID=d40b2d10
DTITLE=Various Artist - The Sound Of The Fourties CD1
DYEAR=1989
DGENRE=Jazz
TTITLE0=Nina Simone - My Baby Just Cares For Me
TTITLE1=Sarah Vaughan - Lullaby Of Birdland
TTITLE2=Dizzy Gillespie - My Melancholy Baby
TTITLE3=Frank Sinatra - Begin The Beguine
TTITLE4=Glenn Miller and His Orchestra - Moonlight Serenade
TTITLE5=Benny Goodman - Don't Be That Way
TTITLE6=Harry James Ft. Dick Haymes - Here Comes The Night
TTITLE7=Louis Armstrong and His Band - Ramblin' Rose
TTITLE8=Ray Charles - This Little Girl Of Mine
TTITLE9=Count Basie - Oh! Lady Be Good
TTITLE10=Nat King Cole - Embraceable You
TTITLE11=Billy Holiday - I Gotta Right To Sing The Blues
TTITLE12=Mahalia Jackson - He's Got The Whole World In His Hand
TTITLE13=The Platters - Red Sails In The Sunset
TTITLE14=Brook Benton - So Many Ways
TTITLE15=Hollywood Orchestra - Diamonds Are Forever
EXTD=YEAR: 1989
EXTT0=
EXTT1=
EXTT2=
EXTT3=
EXTT4=
EXTT5=
EXTT6=
EXTT7=
EXTT8=
EXTT9=
EXTT10=
EXTT11=
EXTT12=
EXTT13=
EXTT14=
EXTT15=
PLAYORDER=
